<?xml version="1.0" encoding="utf-8"?>
<!-- Generator: Adobe Illustrator 25.4.1, SVG Export Plug-In . SVG Version: 6.00 Build 0)  -->
<svg version="1.1" id="Calque_1" xmlns="http://www.w3.org/2000/svg" xmlns:xlink="http://www.w3.org/1999/xlink" x="0px" y="0px"
	 viewBox="0 0 800 800" style="enable-background:new 0 0 800 800;" xml:space="preserve">
<style type="text/css">
	.st0{fill:#FFFFFF;}
</style>
<path class="st0" d="M750.6,378.5c-2-0.1-4.4-0.2-6.8-0.2c-12.1,0-23.7,2.2-34.3,6.3l0.6-0.2c-3.1,1.3-8.1,1.3-8.5,5.2
	c1.7,1.6,2,4.4,3.4,6.7c2.9,5,6.5,9.1,10.7,12.6l0.1,0.1c4.4,3.4,8.8,6.8,13.3,9.7c8.1,5,17.4,8,25.3,13c4.5,2.9,9.1,6.7,13.8,9.8
	c2.3,1.6,3.8,4.4,6.7,5.4v-0.6c-1.4-1.9-1.9-4.6-3.3-6.7c-2.1-2.1-4.2-4-6.2-6c-6.2-8.1-13.4-15.1-21.4-20.9l-0.3-0.2
	c-6.7-4.5-21.3-10.9-24-18.6l-0.4-0.4c5.5-0.8,10.3-1.9,15-3.5l-0.6,0.2c7.1-1.9,13.6-1.5,20.9-3.3c3.3-0.9,6.6-1.9,10-2.9V382
	c-3.7-3.8-6.5-8.9-10.4-12.4c-10.2-9-21.5-17.5-33.4-25.1l-1.1-0.7c-6.5-4.2-14.9-6.9-21.8-10.4c-2.5-1.2-6.7-1.9-8.1-4
	c-3.2-4.6-6.1-9.9-8.4-15.5l-0.2-0.6c-6.1-11.9-11.8-24-17.1-36.3c-3.6-9.6-7.2-17.4-11.2-25l0.6,1.2c-19.6-33-47-59.5-79.7-77.6
	l-1.1-0.6c-7.7-3.8-16.7-6.8-26.1-8.5l-0.6-0.1c-5.2-0.2-10.4-0.6-15.6-0.8c-3.6-2.4-6.8-4.8-9.7-7.4l0.1,0.1
	c-11.9-7.5-42.6-23.8-51.3-2.2c-5.6,13.5,8.4,26.9,13.2,33.8c3.8,4.6,7.4,9.7,10.4,15.1l0.3,0.5c1.5,3.6,1.9,7.3,3.4,11.1
	c3.6,11.3,7.3,20.6,11.5,29.6l-0.6-1.6c2.5,5,5,9.2,7.9,13.2l-0.2-0.3c1.7,2.3,4.5,3.4,5.2,7.1c-2.2,4.5-3.8,9.8-4.8,15.2l-0.1,0.4
	c-2.7,8.3-4.3,17.9-4.3,27.8c0,15.5,3.8,30.1,10.6,43l-0.3-0.5c3.4,5.2,11.3,16.7,22,12.3c9.4-3.8,7.3-15.6,10-26.1
	c0.6-2.5,0.2-4.2,1.5-5.9v0.5c2.9,5.9,5.9,11.5,8.6,17.4c7.5,10.9,16.5,20.1,26.8,27.8l0.3,0.2c5,3.8,9,10.2,15.2,12.5v-0.6h-0.5
	c-1.4-1.6-3-2.9-4.7-4.1l-0.1,0c-3.9-3.8-7.5-7.9-10.7-12.2l-0.2-0.3c-8.1-11-15.9-23.4-22.6-36.5l-0.7-1.5
	c-3.4-6.5-6.3-13.6-9-20.1c-1.2-2.5-1.2-6.2-3.4-7.5c-3.7,4.2-7,8.8-9.8,13.8l-0.2,0.4c-3.2,9.3-5.3,20.1-5.8,31.3v0.3
	c-0.8,0.2-0.4,0-0.8,0.4c-6.7-1.6-9-8.5-11.5-14.4c-3.4-9.1-5.4-19.8-5.4-30.8c0-8.9,1.3-17.5,3.7-25.6l-0.2,0.6
	c1.5-4.4,7.7-18.2,5.2-22.4c-1.3-4-5.4-6.2-7.7-9.5c-2.7-3.9-5.2-8.2-7.3-12.8l-0.2-0.5c-5-11.7-7.5-24.6-12.9-36.3
	c-3.3-6.1-6.7-11.4-10.6-16.2l0.2,0.2c-4.1-4.8-7.9-10.1-11.2-15.8l-0.3-0.5c-1-2.3-2.5-6.1-0.9-8.6c0.3-1.4,1.5-2.6,2.9-2.8h0
	c2.8-2.2,10.5,0.7,13.2,1.9c7.9,3,14.8,6.5,21.1,10.7l-0.4-0.2c2.9,2,6.1,6,9.8,7.1h4.4c6.7,1.5,14.2,0.4,20.5,2.3
	c11.5,3.9,21.4,8.7,30.6,14.7l-0.5-0.3c27.6,17.8,49.7,41.9,64.6,70.4l0.5,1c2.5,4.8,3.6,9.2,5.9,14.2c4.4,10.3,9.8,20.7,14.2,30.7
	c4.2,10.7,9.2,20,15.2,28.5l-0.3-0.4c3.1,4.4,15.7,6.6,21.3,8.9c5.9,2.1,10.7,4,15.3,6.3l-0.9-0.4c7.2,4.4,14.2,9.4,20.9,14.2
	C739.7,369,750.1,374.2,750.6,378.5L750.6,378.5z M457.5,561.3c0,0.4,0,0.8,0,1.2c0,14-6.2,26.4-16.1,34.8l-0.1,0.1
	c-10.8,8.8-24.7,14.1-39.9,14.1c-1.2,0-2.3,0-3.5-0.1h0.1c-18.5-0.2-35.5-6.2-49.4-16.3l0.2,0.2l7.4-14.9c10.7,6,23.5,9.7,37,10.2
	h0.1c0.7,0.1,1.4,0.1,2.2,0.1c8.3,0,16-2.6,22.3-7l-0.1,0.1c5.7-4.3,9.4-11.1,9.4-18.8c0-0.2,0-0.3,0-0.4v0c0-10.3-7.2-19-20.2-26.4
	c-12.1-6.7-36.3-20.5-36.3-20.5c-11.9-7.4-19.8-20.4-19.8-35.3c0-0.5,0-1,0-1.6v0.1c0-0.5,0-1,0-1.6c0-12.9,5.7-24.4,14.7-32.3
	l0-0.1c9.5-8.1,22-13,35.6-13c0.9,0,1.7,0,2.6,0.1h-0.1c0.2,0,0.5,0,0.8,0c16,0,30.8,4.8,43.2,13l-0.3-0.2l-6.7,14.9
	c-9.8-4.4-21.2-7-33.2-7.2h-0.1c-0.6-0.1-1.3-0.1-2-0.1c-7,0-13.4,2.4-18.5,6.5l0-0.1c-4.7,3.9-7.7,9.8-7.8,16.4l0,0
	c0,10.2,7.3,19,20.8,26.6c12.3,6.7,37.1,20.9,37.1,20.9c12.2,7.2,20.3,20.2,20.3,35.2c0,0.4,0,0.9,0,1.4v-0.1L457.5,561.3z
	 M509.4,574.6c-6.8-13.6-10.8-29.7-10.8-46.7c0-2.7,0.1-5.3,0.3-7.9l0,0.4c0-43.5,13.2-65.3,39.7-65.3c0.7-0.1,1.4-0.1,2.2-0.1
	c11.9,0,22.3,6.2,28.2,15.5l0.1,0.1c6.8,13.6,10.8,29.5,10.8,46.4c0,2.6-0.1,5.2-0.3,7.7l0-0.4c0,43.9-13.2,65.8-39.7,65.9
	c-0.7,0.1-1.5,0.1-2.2,0.1c-11.9,0-22.3-6.2-28.2-15.5l-0.1-0.1L509.4,574.6z M612.2,613.4l-31.8-15.6c2.9-2.4,5.5-5,7.9-7.7
	l0.1-0.1c12.8-17.3,20.5-39.1,20.5-62.6c0-2.7-0.1-5.4-0.3-8.1l0,0.3c0-57.2-22.4-85.8-67.3-85.8c-1-0.1-2.2-0.1-3.4-0.1
	c-19.2,0-36.4,8.4-48.1,21.8l-0.1,0.1c-12.8,17.3-20.5,39.1-20.5,62.6c0,2.7,0.1,5.3,0.3,7.9l0-0.3c-0.2,2.5-0.4,5.5-0.4,8.4
	c0,21.9,6.9,42.1,18.5,58.7l-0.2-0.3c11.2,12,27.1,19.4,44.8,19.4c1.7,0,3.3-0.1,4.9-0.2l-0.2,0c0.2,0,0.5,0,0.8,0
	c7.8,0,15.3-1.1,22.4-3.2l-0.5,0.2l41.4,24.1l11.2-19.4L612.2,613.4z M715.9,609.1h-82.2V436.4h27.6v151.5h54.5V609.1z M330.9,481.7
	c-7.2,52.1-23.6,99.1-47.6,141.2l1-1.9c-9.6,18.5-27.8,31.4-49.2,33.5l-0.2,0c-6.5-0.4-12.5-1.9-18-4.4l0.3,0.1v-15.4
	c3.4,0.5,7.4,0.8,11.4,0.8c0.2,0,0.4,0,0.7,0h0c0.4,0,0.9,0,1.3,0c7.2,0,13.8-2.6,19-7l-0.1,0c5.5-4.5,9-11.3,9.2-18.9v0
	c-1.3-10.9-3.9-20.9-7.5-30.3l0.3,0.8l-31.7-98.6h28.4l22.7,73.7c4,10.4,6.4,22.5,6.4,35c0,0,0,0.1,0,0.1l0,0
	c12.1-31.5,21.2-68.3,25.9-106.5l0.2-2.3L330.9,481.7z M205.4,609.1h-28.9c-0.8-46-3.6-91.9-8.4-137.8h-0.2l-44.1,137.8h-22
	L57.9,471.4h-0.3c-3.4,45.8-5.5,91.8-6.1,137.8H25.1c1.7-61.4,6-119,12.8-172.8h35.9l41.7,127h0.3l42.1-127h34.2
	C199.6,499.3,204.1,556.9,205.4,609.1L205.4,609.1z M537.6,197c-0.1,0-0.1,0-0.2,0c-3,0-5.8,0.4-8.6,1.1l0.2,0v0.4h0.4
	c2.2,3.2,4.3,6,6.7,8.6l0,0c1.7,3.3,3.1,6.7,4.8,10l0.4-0.5c2.7-2.2,4.4-5.5,4.4-9.2c0-0.4,0-0.9-0.1-1.3v0
	c-1.2-1.5-1.4-2.9-2.5-4.4c-1.2-2.1-3.9-3.1-5.6-4.8L537.6,197z"/>
</svg>
